<svg xmlns="http://www.w3.org/2000/svg" width="1175" height="1175" fill="none">
  <g clip-path="url(#a)">
    <circle cx="588.5" cy="587.5" r="587.5" fill="#fff"/>
    <path fill="#0f172a" d="M460.384 249.694c-.077-.38-.291-.689-.641-.927-7.646-5.11-17.457-15.25-20.325-23.656-.598-1.756-.124-2.153 1.421-1.191l20.595 12.893c1.451.909 2.395.512 2.83-1.191 4.15-16.428 13.666-34.14 27.78-44.174a2.353 2.353 0 0 1 2.001-.366 2.4 2.4 0 0 1 .927.488c.272.23.492.518.645.844.145.309.013.993-.397 2.052-6.079 15.85-9.016 32.092-8.811 48.728.007.533.154 1.054.425 1.509.27.454.654.825 1.111 1.072 3.433 1.853 9.094 4.024 10.029 8.327.043.194.033.397-.028.584a1.037 1.037 0 0 1-.318.475 8.705 8.705 0 0 1-3.612 1.879 1819.03 1819.03 0 0 0-52.959 14.363 15.17 15.17 0 0 1-3.573.596 1.39 1.39 0 0 1-.709-.165 1.448 1.448 0 0 1-.54-.503 1.52 1.52 0 0 1-.096-1.45c4.137-8.896 15.126-16.415 23.899-19.552a.53.53 0 0 0 .291-.249.562.562 0 0 0 .055-.386ZM868.937 521.942c1.773-10.028 7.642-21.323 16.44-26.806a.91.91 0 0 1 .906-.028c.141.076.26.188.346.324a.965.965 0 0 1 .148.457c.069 1.181-.141 2.422-.629 3.726-3.16 8.508-4.941 17.35-5.343 26.528-.03.69.163 1.372.549 1.936.386.564.943.98 1.583 1.182 1.909.607 3.472 1.713 4.688 3.315a1.883 1.883 0 0 1 .268 1.752 1.836 1.836 0 0 1-.501.755c-.227.205-.5.347-.795.413a2204.318 2204.318 0 0 1-34.254 7.398c-.676.141-1.233.141-1.669 0a.948.948 0 0 1-.605-.57 1.008 1.008 0 0 1 .053-.843c3.172-5.8 8.566-8.627 14.384-10.952a.614.614 0 0 0 .274-.209.652.652 0 0 0 .06-.67.618.618 0 0 0-.231-.257c-4.726-3.039-8.147-7.222-10.262-12.551-.813-2.034-.304-2.484 1.528-1.347l11.496 7.173a1.016 1.016 0 0 0 1.363-.256c.104-.137.174-.299.203-.47Z"/>
    <path fill="#0f172a" d="M961.619 1028.68c-67.326 56.27-143.843 97.5-228.675 120.79-7.355 2.02-15.828 4-25.419 5.94-24.518 4.98-38.709 7.27-62.691 9.68-8.965.91-17.646 1.45-26.045 1.62-22.864.47-45.728.36-68.592-.32-8.46-.26-18.043-1.88-27.103-2.32.183-.67-.666-1.03-2.546-1.07-4.452-.09-9.282-1.45-13.055-1.85-7.807-.83-14.226-1.75-19.256-2.77-11.533-2.34-29.266-6.3-53.2-11.88-31.189-8.74-62.222-19.76-91.361-34.09-10.562-5.19-21.815-10.56-31.515-15.85-39.949-21.76-74.611-47.69-109.39-77.49-6.31-5.41-19.644-18.72-40.001-39.923a223.944 223.944 0 0 0-9.217-11.652 1513.584 1513.584 0 0 1-16.528-19.883c-2.48-3.031-4.974-6.95-7.716-10.268-5.652-6.858-9.974-12.92-14.726-19.674-26.685-38.55-49.845-80.51-66.947-124.221-6.032-15.423-10.3-27.686-12.807-36.787a673.507 673.507 0 0 0-4.047-14.173c-1.867-6.297-3.538-13.782-5.483-20.641-2.611-9.21-3.917-18.903-6.006-28.282-1.984-8.918-4.13-23.967-6.436-45.148-.444-4.102-.827-9.497-1.149-16.186-.34-7.237-1.123-14.879-1.319-21.633-.574-20.022-.513-35.197.183-45.526.81-12.136 1.019-24.39 2.572-36.434.535-4.154.522-8.465 1.123-12.358a1722.602 1722.602 0 0 0 3.943-26.506c1.083-7.721 2.91-15.428 4.425-23.175 2.194-11.287 5.38-23.331 8.512-34.644a577.399 577.399 0 0 1 46.085-115.991c3.251-6.153 8.29-14.41 12.311-21.725 1.784-3.24 3.477-6.114 5.079-8.622 13.303-20.889 23.591-35.833 38.173-54.423 39.936-50.987 88.371-93.508 141.284-127.839 49.832-32.346 107.823-58.107 165.37-73.208 22.429-5.879 47.939-11.535 72.509-14.449 11.554-1.358 23.264-3.16 34.57-3.893 23.926-1.532 40.832-2.09 50.72-1.672 15.849.68 31.946.81 47.677 2.927 6.136.836 12.899 1.24 18.421 1.998C760.259 28.593 848.164 63.773 927.062 120.6c102.008 73.469 178.528 180.015 214.328 300.291 8.01 26.963 13.88 51.914 18.63 83.136.39 2.604.88 6.632 1.46 12.084 2.01 18.811 4.2 37.806 4.34 56.669.13 18.72.7 37.963-1.18 56.579-.9 8.961-1.37 17.687-2.6 26.871-7.44 55.821-21.85 110.034-44.62 161.086-14.7 32.96-32.63 65.958-53.49 96.226-8.76 12.724-15.92 22.687-21.49 29.89-3.02 3.91-9.34 11.587-18.95 23.031-19.4 23.083-37.954 41.527-59.221 59.267-.67.56-1.554 1.54-2.65 2.95ZM402.02 357.467l-315.623.17c-.39 0-.774.11-1.106.318-.333.208-.6.505-.774.858a376.464 376.464 0 0 0-17.82 43.149c-.366 1.08.021 1.62 1.162 1.62l30.993-.04a1.363 1.363 0 0 1 1.201.732l39.609 77.023c.125.247.316.454.552.597.235.143.505.217.78.212l71.347-.091c.333 0 .661-.086.949-.251.289-.165.529-.403.696-.69l34.831-58.851a.63.63 0 0 1 .516-.31.646.646 0 0 1 .554.258l47.626 63.384c-23.073 25.239-41.176 53.639-54.31 85.201-.156.365-.418.483-.783.352l-.353-.13c-.017 0-.004-.066.04-.196a48.5 48.5 0 0 0 2.128-15.036 1.168 1.168 0 0 0-.332-.792 1.139 1.139 0 0 0-.778-.345l-4.831-.17a1.146 1.146 0 0 0-1.188 1.084 300.145 300.145 0 0 0-.313 21.372c.105 4.886-.666 8.91-2.298 13.129-4.16 10.721-7.593 20.205-10.3 28.453-.618 1.898-1.658 4.389-3.12 7.472l-.379-17.479c-.017-.705-.379-1.058-1.084-1.058l-5.209-.052c-.652-.009-.983.317-.992.979l-.196 33.456c0 .453.196.784.588.993.792.427 1.749.474 2.872.143-3.542 14.701-6.132 29.764-7.768 45.187l.509-28.583a.838.838 0 0 0-.503-.78.835.835 0 0 0-.319-.069l-6.293-.065c-.47 0-.705.231-.705.692l-.052 32.032a1.52 1.52 0 0 0 .474 1.114 1.53 1.53 0 0 0 1.145.414l5-.339.313 15.153-5.796.222c-.609.018-.918.336-.927.954l-.274 18.511c-.018 1.141.539 1.711 1.671 1.711l5.705.04a1.415 1.415 0 0 0 1.103-.535 1.38 1.38 0 0 0 .255-1.19c-.54-2.186-.57-4.572-.092-7.159 1.219 6.445 3.116 12.794 5.692 19.047a.847.847 0 0 1-.927 1.15c-.522-.092-.887-.418-1.553-.484a333.342 333.342 0 0 0-65.511.209c-7.346.749-21.237 2.722-41.672 5.918-.462.07-.88.244-1.254.523a9.096 9.096 0 0 1-2.715 1.384c-.409.131-.771.053-1.084-.235a4.498 4.498 0 0 1-1.123-1.594 1.125 1.125 0 0 0-1.057-.705l-9.178.092a1.38 1.38 0 0 0-1.309 1.001 1.358 1.358 0 0 0-.036.579l.457 3.07a.733.733 0 0 1-.535.823l-19.544 5.317a.785.785 0 0 1-.992-.771l.21-8.831c.008-.583-.28-.871-.862-.862l-7.599.039c-.818 0-1.096.392-.835 1.176l6.775 20.418a.992.992 0 0 0 1.24.627c40.864-13.507 85.408-21.476 128.438-19.281 11.658.6 26.123 2.691 39.662 6.74a.563.563 0 0 0 .632-.205.638.638 0 0 0-.058-.814c-17.22-18.445-17.246-49.654-14.543-73.064 4.673-40.458 19.452-80.602 36.437-117.389 11.079-23.993 25.318-45.931 42.716-65.814 25.101-28.679 55.172-50.538 90.212-65.579a731.543 731.543 0 0 1 68.605-25.46c15.497-4.873 36.085-12.541 46.007-24.664 6.606-8.061 13.486-17.819 20.47-24.011 7.764-6.889 16.698-11.966 26.803-15.232.67-.218 1.17-.484 1.501-.797a.79.79 0 0 0-.021-1.137.76.76 0 0 0-.371-.183c-4.325-.818-7.985-2.83-10.979-6.035a.723.723 0 0 1-.155-.736.756.756 0 0 1 .586-.492c16.358-2.639 17.376-16.525 20.118-30.059.409-2.012-.179-2.369-1.763-1.071l-1.292 1.058a.608.608 0 0 1-.67.076.61.61 0 0 1-.335-.586c.535-12.985 8.042-20.366 16.645-28.739a1.078 1.078 0 0 0 .269-1.133 1.072 1.072 0 0 0-.922-.709l-2.611-.222a1.053 1.053 0 0 1-.916-.706 1.059 1.059 0 0 1 .276-1.123 97.188 97.188 0 0 0 11.267-12.711c6.11-8.23 10.497-22.117 19.648-26.61.356-.179.76-.234 1.149-.157 1.501.287 2.285-.144 3.094-1.489 9.047-14.958 19.231-30.125 32.09-42.091.548-.514 1.484-1.002 2.807-1.463.409-.157.8-.113 1.175.13 6.136 3.88 9.556 28.414 10.614 35.494a.987.987 0 0 0 .625.773.958.958 0 0 0 .967-.172c14.27-12.175 28.461-25.435 43.644-36.304 1.897-1.358 3.486-1.254 4.765.314.464.556.718 1.259.718 1.986-.104 18.249-3.003 36.721-4.412 54.827a4.53 4.53 0 0 0 1.357 3.58 601.15 601.15 0 0 1 16.293 16.381c4.831 5.051 8.007 9.045 9.53 11.979 2.664 5.148 4.004 8.953 4.021 11.418.04 8.7-1.031 20.066 1.41 27.499 2.246 6.819 7.546 12.998 13.264 17.178a2.679 2.679 0 0 1 .862 3.253c-1.971 4.363-5.901 6.127-7.193 10.595-5.196 18.027-26.072 25.526-43.017 26.532-4.056.235-8.147.557-12.272.966-.505.053-.683.323-.535.81 2.21 7.264 2.793 14.688 1.749 22.274-.087.644-.435.844-1.044.6-1.289-.522-2.198-1.628-2.729-3.318a.536.536 0 0 0-.277-.319.518.518 0 0 0-.415-.007l-.352.143c-.549.227-.727.619-.536 1.176 3.225 9.406 4.844 18.002 3.656 27.799-.27 2.204-.962 2.347-2.076.431-.374-.635-.592-.988-.653-1.058-1.914-2.334-2.576-2.02-1.984.941 1.371 6.91.666 14.788-.157 22.025-.051.433.036.872.248 1.254 5.692 10.072 9.413 18.407 7.024 30.151-.4 1.985-.962 2.033-1.684.143-1.28-3.353-3.233-6.305-5.862-8.857-1.314-1.289-1.815-1.027-1.501.784.47 2.665 1.127 5.77 1.971 9.314 2.228 9.328 1.645 18.385-1.749 27.173a.803.803 0 0 1-1.074.419.786.786 0 0 1-.323-.276l-2.167-3.292a1.03 1.03 0 0 0-1.681-.06 1.024 1.024 0 0 0-.212.609c-.34 12.031-2.063 23.41-9.792 32.724-1.331 1.594-2.01 1.354-2.036-.718-.035-2.352-.897-4.342-2.585-5.97a1.018 1.018 0 0 0-1.078-.221 1.063 1.063 0 0 0-.672.887c-1.07 12.293-2.35 22.939-6.932 34.501a.574.574 0 0 1-1.031.078 80.998 80.998 0 0 0-2.598-4.324c-.192-.288-.349-.422-.47-.405a1.74 1.74 0 0 0-1.45 1.293 611.107 611.107 0 0 1-7.48 27.068c-2.289 7.629-6.11 24.799-11.463 51.509-3.777 18.847-9.099 48.057-15.966 87.63-1.61 9.284-2.063 18.895-1.358 28.832.313 4.402 2.768 18.628 7.742 20.091a137.69 137.69 0 0 1 9.008 2.992c10.065 3.736 17.05 13.978 11.893 24.625-.653 1.358-.23 2.116 1.267 2.273 38.447 4.01 67.443 29.889 88.096 60.863a3.56 3.56 0 0 0 2.481 1.567c51.986 7.433 96.935 32.816 134.795 68.505 1.149 1.089 2.263 1.699 3.342 1.829a414.838 414.838 0 0 1 38.5 6.571 1114.252 1114.252 0 0 1 83.566 21.79c.888.27 1.802.375 2.742.314a.94.94 0 0 0 .626-.314l8.251-9.262a.564.564 0 0 0 .128-.552.593.593 0 0 0-.415-.402l-75.642-20.757.052-28.662c0-.522-.261-.788-.783-.797l-10.731-.156a.786.786 0 0 0-.549.212.75.75 0 0 0-.235.532l-.313 26.323c-1.593-.575-2.829-.731-3.708-.47l-.3-26.14c0-.462-.231-.693-.692-.693l-10.353.105c-.409 0-.613.205-.613.614l-.34 23.488c-.809-.461-1.401-.731-1.775-.81a555.367 555.367 0 0 0-24.492-4.572c-1.21-.192-1.688-.971-1.436-2.338l-.339-15.037c-.026-.984-.527-1.493-1.502-1.528l-10.196-.379c-1.114-.035-1.61.501-1.488 1.607l.653 5.761c-2.028-1.437-3.699-3.074-5.013-4.912-1.998-2.795-5.901-3.619-8.604-5.683-27.716-21.228-57.195-36.146-91.556-43.854a896.753 896.753 0 0 1-16.541-3.84c-1.654-.401-2.977-1.294-3.969-2.679a179.003 179.003 0 0 0-21.267-24.755c-1.636-1.576-2.654-3.009-3.055-4.298l.17-25.108c0-.435-.218-.653-.653-.653l-13.172-.078c-.557 0-.84.274-.849.823l-.196 14.892c-10.696-7.673-22.376-13.212-35.04-16.617l-.326-27.721c-.009-.348-.188-.526-.536-.535l-9.739-.209c-.409-.009-.618.196-.627.614l-.274 15.336-3.198-4.572.117-9.34c.018-1.263-.605-1.881-1.867-1.855l-7.141.13c-1.323.026-1.819.675-1.488 1.947.348 1.341.213 2.343-.405 3.004-14.87-.796-11.632-32.332-10.052-41.137 3.411-18.994 6.832-37.98 10.261-56.957 1.462-8.112 4.857-23.553 6.436-35.598.043-.328.206-.629.457-.842.252-.213.573-.323.901-.307l3.773.156a.942.942 0 0 0 .368-.056.938.938 0 0 0 .624-.845l.34-7.707c.026-.575-.248-.863-.823-.863-.6 0-1.192.109-1.775.327a.842.842 0 0 1-.439.04.843.843 0 0 1-.644-.554.843.843 0 0 1-.027-.44l6.88-33.299a.738.738 0 0 1 .258-.431c.133-.11.3-.17.473-.169l46.437-.066a.484.484 0 0 0 .484-.483l.104-26.206c0-.827.409-1.245 1.227-1.254l6.828-.091a1.189 1.189 0 0 1 1.201 1.123c.348 7.298.522 14.888.522 22.77 0 7.446 6.058 13.482 9.439 19.817a.943.943 0 0 0 .771.501.95.95 0 0 0 .835-.383l15.144-20.549c.198-.268.458-.485.757-.635.299-.149.63-.227.966-.227l92.392.222a1.763 1.763 0 0 0 1.488-.823l13.343-21.176c.74-1.167 1.802-1.755 3.185-1.764l17.912-.078 88.684.235c1.036 0 1.554-.522 1.554-1.567.017-20.371.078-39.979.183-58.825.026-4.481 1.84-8.348 2.258-13.234a1.6 1.6 0 0 1 1.214-1.424c.209-.052.344.157.405.627.278 2.108.474 4.229.587 6.362.009.262.192.423.549.484.452.087.735-.096.848-.549l4.413-18.132a1.073 1.073 0 0 0-.204-.931 1.105 1.105 0 0 0-.866-.415l-57.339.51-138.372-.823c-.244-.009-.375-.135-.392-.379l-.013-.34c-.009-.069.022-.109.091-.117 9.905-1.69 19.862-2.8 29.871-3.332 2.193-.117 3.564-.457 5.274-2.038 11.175-10.32 24.087-10.294 37.26-3.605a.59.59 0 0 0 .783-.222c6.24-10.281 17.324-16.107 29.492-13.508.461.105.792-.056.992-.483 7.18-14.596 19.174-21.437 35.98-20.523 9.478 1.28 17.485 5.866 24.022 13.756.252.305.597.519.983.611.386.092.792.056 1.158-.102 10.992-4.824 21.219-3.736 30.679 3.266 2.181 1.62 4.27 4.128 6.371 6.114a.41.41 0 0 0 .416.085.405.405 0 0 0 .263-.333l3.812-36.565c.514-4.955 1.027-4.955 1.541 0l3.995 38.368c.043.461.296.701.757.718 5.84.253 10.718 2.5 14.635 6.741a1.215 1.215 0 0 0 1.749.052c9.828-9.536 34.288-6.375 40.748 6.179a2.017 2.017 0 0 0 1.59 1.071l29.77 2.9c.1.018.15.079.15.183l-.01.51c-.01.244-.14.37-.39.379l-83.842.666a.202.202 0 0 0-.155.082.229.229 0 0 0-.041.179 172.776 172.776 0 0 0 5.222 20.288c.531 1.655 1.075 1.659 1.632.013.444-1.315.544-3.144.3-5.487-.017-.148.048-.235.196-.261l.392-.052a.578.578 0 0 1 .427.105c.124.09.209.226.238.378a94.796 94.796 0 0 1 1.893 18.106c.157 16.573.153 34.305-.013 53.195-.008.993.483 1.485 1.476 1.476l28.685-.144c.29.001.57.073.83.209.25.137.47.334.63.575l13.65 20.915a.554.554 0 0 0 .35.24c.07.015.14.015.21 0a.485.485 0 0 0 .2-.083l.42-.288c.04-.035.05-.078.03-.131l-6.34-10.28a1.345 1.345 0 0 1-.18-.735c.01-.259.1-.508.26-.716l53.41-69.001c.29-.378.67-.684 1.1-.894.43-.211.9-.321 1.38-.321l46.62-.026c.1-.001.21-.024.3-.067a.76.76 0 0 0 .39-.444c.02-.097.03-.199.02-.299-6.91-46.889-19.57-91.858-37.97-134.907-1.37-3.214-2.8-6.34-4.29-9.38a1.32 1.32 0 0 0-.49-.534 1.288 1.288 0 0 0-.69-.197l-292.774-.248-39.505.509c-.07 0-.126-.035-.17-.104a11.672 11.672 0 0 0-.17-.301c-.069-.122-.034-.205.105-.248a119.1 119.1 0 0 1 26.267-4.677c.427-.026.74-.231.94-.614.862-1.646 1.606-4.01 2.272-5.199 6.031-10.73 15.165-16.887 27.402-18.472 3.186-.405 7.442.052 11.097-.078a.877.877 0 0 0 .836-.68c6.423-28.766 32.338-48.413 62.051-44.337a.739.739 0 0 0 .847-.685.78.78 0 0 0-.076-.4c-22.651-44.99-57.73-83.776-98.698-112.646-67.352-47.473-150.84-68.858-232.722-57.872-109.037 14.618-203.126 85.41-248.48 185.11-.2.445-.483.506-.849.183-11.636-10.355-25.244-16.207-40.823-17.557-3.438-.296-9.774-.296-19.009 0a.424.424 0 0 0-.291.132.419.419 0 0 0-.113.299v.431c.008.139.082.209.222.209 27.063-.235 48.878 12.019 64.832 33.417a1.42 1.42 0 0 0 1.984.3c2.568-1.89 5.518-3.2 8.852-3.932 4.112-.914 6.136-2.182 9.804-4.076 24.505-12.737 55.263 1.542 67.574 24.782.305.574.753.731 1.345.47 22.193-9.471 47.038.131 58.226 20.849a1.773 1.773 0 0 0 1.345.902c7.528.792 14.965 2.09 22.311 3.893 2.141.522 2.11.779-.092.77l-82.9-.209Zm542.509-88.531 3.786.235c.523.035.557-.074.105-.327a10.609 10.609 0 0 0-2.885-1.084c-12.803-1.89-25.079-.483-36.829 4.22-5.992 2.403-11.985 6.649-17.964 10.241a.249.249 0 0 0 .026.445l9.348 4.115a.426.426 0 0 0 .496-.092c12.611-11.931 27.25-17.849 43.917-17.753Zm-790.767 24.977a1.934 1.934 0 0 1-1.932-.392c-5.423-4.99-11.759-7.019-19.009-6.087-.182.026-.296.117-.339.274a.222.222 0 0 0 .196.288c7.598.505 13.634 3.74 18.107 9.706.06.081.136.149.224.199a.73.73 0 0 0 .582.072.745.745 0 0 0 .265-.141 18.222 18.222 0 0 1 8.682-3.958c2.706-.444 2.693-.788-.04-1.032-2.019-.174-4.264.183-6.736 1.071Zm20.89 198.962a.378.378 0 0 0 .063-.123.333.333 0 0 0 .011-.137.336.336 0 0 0-.042-.131.336.336 0 0 0-.089-.106l-.675-.535a.355.355 0 0 0-.259-.075.354.354 0 0 0-.235.131l-34.914 43.919a.36.36 0 0 0-.033.392c.023.04.053.076.089.105l.675.537a.35.35 0 0 0 .259.074.35.35 0 0 0 .236-.13l34.914-43.92v-.001ZM68.428 518.277a1.181 1.181 0 0 0-.349-.83 1.177 1.177 0 0 0-.833-.339l-8.538.044a1.175 1.175 0 0 0-1.168 1.182l.062 12.045a1.174 1.174 0 0 0 1.182 1.169l8.538-.044a1.189 1.189 0 0 0 1.081-.732c.059-.143.088-.296.087-.451l-.062-12.044Zm31.172-.127a.813.813 0 0 0-.495-.753.803.803 0 0 0-.31-.063l-9.765-.068a.803.803 0 0 0-.75.495.81.81 0 0 0-.064.309l-.087 12.411a.809.809 0 0 0 .805.815l9.765.068a.824.824 0 0 0 .574-.234.802.802 0 0 0 .24-.571l.087-12.41v.001Zm114.536 6.508a1.112 1.112 0 0 0-1.098-1.121l-3.577-.037a1.107 1.107 0 0 0-1.123 1.098l-.142 13.665a1.108 1.108 0 0 0 1.098 1.12l3.577.038a1.11 1.11 0 0 0 1.033-.674c.058-.134.088-.278.089-.424l.143-13.665Zm-7.986.188a1.136 1.136 0 0 0-.326-.795 1.123 1.123 0 0 0-.793-.332l-3.368-.01a1.124 1.124 0 0 0-1.127 1.118l-.047 13.455a1.128 1.128 0 0 0 .69 1.041c.136.057.282.086.429.087l3.368.013a1.128 1.128 0 0 0 .796-.327 1.136 1.136 0 0 0 .331-.794l.047-13.456Zm35.907-.372a.692.692 0 0 0-.697-.686l-4.047.036a.69.69 0 0 0-.687.697l.125 14.265a.694.694 0 0 0 .697.686l4.048-.035a.69.69 0 0 0 .686-.698l-.125-14.265Zm8.439.287a.944.944 0 0 0-.572-.874.927.927 0 0 0-.359-.075l-4.439-.039a.934.934 0 0 0-.874.573.924.924 0 0 0-.075.359l-.12 13.874a.939.939 0 0 0 .931.948l4.439.039a.925.925 0 0 0 .667-.269.928.928 0 0 0 .282-.663l.12-13.874v.001Zm-132.511 22.644a.84.84 0 0 0-.519-.771.856.856 0 0 0-.32-.062l-10.888.058a.833.833 0 0 0-.83.84l.216 41.594a.837.837 0 0 0 .841.832l10.888-.057a.837.837 0 0 0 .83-.84l-.218-41.594Zm-49.544.484a1.152 1.152 0 0 0-1.137-1.159l-8.408-.073a1.147 1.147 0 0 0-1.068.7c-.059.139-.09.288-.091.439l-.358 41.045a1.15 1.15 0 0 0 1.139 1.158l8.407.074a1.147 1.147 0 0 0 1.068-.7c.059-.139.09-.289.091-.44l.357-41.044Zm31.588-.24a.977.977 0 0 0-.979-.979l-10.026.019a.984.984 0 0 0-.693.287.976.976 0 0 0-.287.694l.074 41.28a.978.978 0 0 0 .979.979l10.026-.018a.985.985 0 0 0 .905-.606.968.968 0 0 0 .074-.375l-.073-41.281Zm59.871 1.489a1.746 1.746 0 0 0-1.073-1.621 1.75 1.75 0 0 0-.669-.136l-4.935-.017a1.746 1.746 0 0 0-1.621 1.075 1.764 1.764 0 0 0-.135.669l-.11 31.588a1.754 1.754 0 0 0 1.743 1.755l4.935.019a1.758 1.758 0 0 0 1.756-1.746l.109-31.587v.001Zm48.511 6.281a.807.807 0 0 0-.783-.797l-5.105-.131a.8.8 0 0 0-.756.488.805.805 0 0 0-.066.309l-.157 34.266a.808.808 0 0 0 .796.81l5.823.131a.823.823 0 0 0 .585-.238.804.804 0 0 0 .237-.585l-.574-34.253Zm4.099 34.057a1.25 1.25 0 0 0 .769 1.174c.154.063.318.095.485.093l5.666-.092a1.238 1.238 0 0 0 1.214-1.254l-.575-33.625a1.238 1.238 0 0 0-1.227-1.228l-4.452-.066a1.246 1.246 0 0 0-1.162.742c-.065.15-.101.31-.104.473l-.614 33.783Zm891.11-29.005a.78.78 0 0 0-.07-.336.838.838 0 0 0-.19-.285.92.92 0 0 0-.28-.19.896.896 0 0 0-.34-.067l-8.09-.013c-.23 0-.45.092-.62.255a.894.894 0 0 0-.26.617l-.02 11.496c0 .115.03.23.07.336.04.106.11.203.19.285a.92.92 0 0 0 .28.19c.11.044.22.067.34.067l8.09.013a.878.878 0 0 0 .88-.872l.02-11.496Zm22.64.226c0-.302-.12-.591-.33-.804a1.167 1.167 0 0 0-.81-.333h-4.49c-.3 0-.59.12-.8.333-.21.213-.33.502-.33.804v11.391c0 .301.12.591.33.804.21.213.5.333.8.333h4.49c.3 0 .59-.12.81-.333.21-.213.33-.503.33-.804v-11.391Zm13.47.248a1.325 1.325 0 0 0-1.24-1.32l-5.29-.339c-.18-.013-.36.012-.53.072-.17.059-.32.153-.45.276-.14.122-.24.27-.31.435-.08.165-.12.343-.12.523l-.06 11.313c0 .174.03.347.09.509.07.162.17.309.29.433a1.314 1.314 0 0 0 .94.391l5.32-.013c.35-.004.68-.143.92-.387.25-.244.39-.574.39-.92l.05-10.973Zm-51.57 27.465a.807.807 0 0 0-.22-.555.806.806 0 0 0-.56-.232l-8.85-.031a.8.8 0 0 0-.3.058.798.798 0 0 0-.25.17.681.681 0 0 0-.17.253.773.773 0 0 0-.06.3l-.11 30.307c0 .103.02.205.06.301.04.095.09.181.17.254a.8.8 0 0 0 .25.171c.1.04.2.06.3.061l8.85.031c.1 0 .21-.019.3-.058.1-.04.18-.097.26-.17a.773.773 0 0 0 .23-.553l.1-30.307Zm15.79-.162a.75.75 0 0 0-.23-.545.757.757 0 0 0-.54-.226h-9.95a.78.78 0 0 0-.55.226.783.783 0 0 0-.22.545v30.438c0 .204.08.4.22.545.15.144.34.225.55.225h9.95c.2 0 .4-.081.54-.225a.754.754 0 0 0 .23-.545v-30.438Zm22.6.196a.865.865 0 0 0-.86-.868l-5.74-.04a.852.852 0 0 0-.61.248.828.828 0 0 0-.26.607l-.21 30.151a.822.822 0 0 0 .25.611c.08.081.17.145.27.189.11.044.22.067.33.067l5.75.041c.23.001.45-.088.61-.249.16-.16.25-.378.26-.607l.21-30.15Zm4.97 29.993a1.057 1.057 0 0 0 .3.726 1.053 1.053 0 0 0 .73.293l6.15-.039a1.018 1.018 0 0 0 1-.993l.45-29.889c0-.134-.02-.267-.07-.391a1.085 1.085 0 0 0-.22-.333.914.914 0 0 0-.33-.225.99.99 0 0 0-.39-.083l-6.54-.131a1.037 1.037 0 0 0-.73.294 1.061 1.061 0 0 0-.3.725l-.05 30.046ZM159.833 605.4a1.649 1.649 0 0 0-1.645-1.646h-4.883a1.642 1.642 0 0 0-1.645 1.646v29.079a1.643 1.643 0 0 0 1.645 1.646h4.883a1.644 1.644 0 0 0 1.645-1.646V605.4Zm778.239.065a.85.85 0 0 0-.25-.611.87.87 0 0 0-.609-.255l-5.457-.018a.859.859 0 0 0-.864.858l-.063 17.871a.852.852 0 0 0 .529.799.854.854 0 0 0 .33.067l5.457.018a.86.86 0 0 0 .865-.858l.062-17.871Zm-65.726 1.156a1.807 1.807 0 0 0-1.804-1.8l-4.491.008a1.797 1.797 0 0 0-1.663 1.115 1.781 1.781 0 0 0-.136.691l.028 15.833a1.792 1.792 0 0 0 1.115 1.663c.219.091.453.137.689.137l4.491-.008a1.803 1.803 0 0 0 1.8-1.806l-.029-15.833Zm19.058-.739a.913.913 0 0 0-.266-.637.903.903 0 0 0-.638-.262l-6.762.024a.904.904 0 0 0-.636.266.89.89 0 0 0-.262.638l.06 16.904a.908.908 0 0 0 .265.637.913.913 0 0 0 .638.262l6.763-.024a.903.903 0 0 0 .83-.559.903.903 0 0 0 .068-.345l-.06-16.904Zm29.234.014a1.15 1.15 0 0 0-1.148-1.149h-4.7a1.149 1.149 0 0 0-1.149 1.149v17.14c0 .305.121.597.336.813.216.215.508.336.813.336h4.7c.304 0 .596-.121.812-.336.215-.216.336-.508.336-.813v-17.14Zm34.982-.294a.897.897 0 0 0-.263-.626.875.875 0 0 0-.629-.258l-5.901.031a.889.889 0 0 0-.882.893l.088 17.191a.882.882 0 0 0 .893.885l5.901-.032a.885.885 0 0 0 .883-.892l-.09-17.192Zm36.979.125a.937.937 0 0 0-.276-.665.936.936 0 0 0-.664-.276h-6.92a.94.94 0 0 0-.939.941v17.165a.94.94 0 0 0 .939.941h6.92a.936.936 0 0 0 .664-.276.937.937 0 0 0 .276-.665v-17.165Zm19.281-.027a.95.95 0 0 0-.95-.953h-6.06a.95.95 0 0 0-.95.953v17.061a.951.951 0 0 0 .95.954h6.06a.951.951 0 0 0 .95-.954V605.7Zm-893.902.993a.984.984 0 0 0-.287-.693.983.983 0 0 0-.693-.286h-10.287a.979.979 0 0 0-.979.979v40.837a.98.98 0 0 0 .979.98h10.287a.984.984 0 0 0 .98-.98v-40.837Zm-49.29-.058a.793.793 0 0 0-.228-.556.77.77 0 0 0-.254-.17.771.771 0 0 0-.3-.061l-9.32-.033a.791.791 0 0 0-.555.228.788.788 0 0 0-.231.554l-.144 40.915a.785.785 0 0 0 .78.785l9.322.032a.782.782 0 0 0 .786-.78l.144-40.914Zm31.343.244a1.14 1.14 0 0 0-.712-1.062 1.145 1.145 0 0 0-.44-.086l-9.713.018a1.145 1.145 0 0 0-1.146 1.151l.07 40.575a1.148 1.148 0 0 0 1.152 1.148l9.713-.018a1.149 1.149 0 0 0 1.146-1.151l-.07-40.575Zm109.379 1.447a.79.79 0 0 0-.481-.726.791.791 0 0 0-.3-.06l-6.214-.021a.772.772 0 0 0-.555.228.78.78 0 0 0-.231.553l-.118 33.495a.79.79 0 0 0 .481.726c.095.039.197.06.3.06l6.214.021a.77.77 0 0 0 .555-.227.795.795 0 0 0 .231-.554l.118-33.495Zm316.138 71.536a1.546 1.546 0 0 1-.652-.758c-.697-1.715-1.45-1.746-2.259-.091l-7.977 16.277a1.186 1.186 0 0 1-.824.652 1.235 1.235 0 0 1-1.03-.247l-2.467-2.012a1.63 1.63 0 0 0-1.267-.341 1.602 1.602 0 0 0-1.096.707c-3.93 6.048-6.658 10.908-13.16 14.54a1.264 1.264 0 0 1-1.488-.183c-2.037-1.942-4.469-3.148-7.298-3.619a1.88 1.88 0 0 0-2.102 1.307c-.94 3.022-1.88 5.961-2.82 8.818-6.736 20.47-24.844 35.48-43.5 43.997-3.577 1.629-3.42 2.173.47 1.633 7.39-1.027 14.748 1.133 22.077 6.48 7.728 5.635 8.977 12.454 3.747 20.457a.405.405 0 0 0 .378.627 203.635 203.635 0 0 1 24.609-.888c28.004.666 56.843 2.561 84.507 7.054 1.427.236 1.662-.187.705-1.267-7.142-8.008-8.734-16.826-9.57-27.263-1.632-20.379-2.206-41.203-4.817-61.386-1.967-15.136-5.984-37.884-12.05-68.244-.714-3.562-1.34-6.257-1.88-8.086-.696-2.343-1.188-2.299-1.475.131-.288 2.508-.183 5.029-1.227 7.668-2.181 5.513-1.619 9.419-1.241 15.324a1.958 1.958 0 0 1-1.305 1.985c-.914.322-1.532 1.185-1.854 2.587a25.703 25.703 0 0 1-2.82 7.145 357.527 357.527 0 0 0-9.073 16.63.887.887 0 0 1-1.241.366Zm132.837-51.72a.689.689 0 0 0-.696-.691l-7.154.026a.694.694 0 0 0-.689.694l.028 8.047a.709.709 0 0 0 .205.49.68.68 0 0 0 .49.201l7.154-.026a.691.691 0 0 0 .69-.694l-.029-8.047h.001Zm21.163.2a.787.787 0 0 0-.224-.546.769.769 0 0 0-.544-.227l-7.494-.026a.767.767 0 0 0-.773.768l-.026 7.707a.78.78 0 0 0 .473.714.79.79 0 0 0 .295.06l7.494.026a.768.768 0 0 0 .713-.474.78.78 0 0 0 .06-.294l.026-7.708Zm47.999-.073a.967.967 0 0 0-.967-.967l-7.623-.014a.975.975 0 0 0-.683.282.974.974 0 0 0-.284.683l-.016 8.466a.967.967 0 0 0 .966.966l7.623.015a.976.976 0 0 0 .684-.283.963.963 0 0 0 .284-.683l.016-8.465Zm14.053-.004a.987.987 0 0 0-.988-.997l-7.337-.026a.993.993 0 0 0-.996.99l-.029 8.387a.996.996 0 0 0 .989.996l7.337.026a1.004 1.004 0 0 0 .919-.61c.05-.121.076-.25.077-.38l.028-8.386Zm28.89.271a1.28 1.28 0 0 0-1.279-1.281h-7.442a1.278 1.278 0 0 0-1.279 1.281v8.099a1.28 1.28 0 0 0 1.279 1.28h7.442a1.28 1.28 0 0 0 1.279-1.28v-8.099Zm-77.622-.322a.732.732 0 0 0-.74-.724l-6.397.079a.732.732 0 0 0-.722.74l.096 7.865a.742.742 0 0 0 .221.514.743.743 0 0 0 .52.208l6.397-.078a.732.732 0 0 0 .722-.741l-.097-7.863Zm395.102 6.898a.56.56 0 0 0-.05-.285.778.778 0 0 0-.16-.243.765.765 0 0 0-.24-.162.77.77 0 0 0-.29-.058l-8.98-.031a.785.785 0 0 0-.53.216.991.991 0 0 0-.16.241.704.704 0 0 0-.06.285l-.12 34.2a.785.785 0 0 0 .22.528c.07.069.15.124.24.162a.77.77 0 0 0 .29.058l8.98.031c.1 0 .19-.019.28-.056a.649.649 0 0 0 .24-.16.799.799 0 0 0 .17-.241c.03-.09.05-.187.05-.285l.12-34.2Zm15.93-.221c0-.07-.01-.14-.04-.205a.43.43 0 0 0-.11-.174.515.515 0 0 0-.18-.117.493.493 0 0 0-.2-.041l-10.39-.037a.538.538 0 0 0-.54.535l-.12 34.514c0 .141.06.278.16.378a.5.5 0 0 0 .37.158l10.39.037a.58.58 0 0 0 .21-.04.594.594 0 0 0 .17-.115.6.6 0 0 0 .12-.174.484.484 0 0 0 .04-.205l.12-34.514Zm28.66-.751a.803.803 0 0 0-.56.233.794.794 0 0 0-.23.564l.01 34.84c0 .112.02.222.07.324a.761.761 0 0 0 .48.436c.1.035.21.048.33.037l1.91-.196a.783.783 0 0 0 .49-.23.817.817 0 0 0 .23-.489l3.38-34.605c.01-.11 0-.221-.03-.326a.8.8 0 0 0-.17-.284.786.786 0 0 0-.58-.265l-5.33-.039Zm-5.95 1.097a.86.86 0 0 0-.24-.591.847.847 0 0 0-.6-.245h-5.48c-.22 0-.43.088-.59.245a.818.818 0 0 0-.24.591v34.227c0 .221.08.434.24.591.16.157.37.245.59.245h5.48c.23 0 .44-.088.6-.245.15-.157.24-.37.24-.591v-34.227Zm-69 45.905c-.86-14.84-3.29-28.348-5.34-42.143-.54-3.623-.94-3.609-1.21.04-.3 3.997-.96 8.783-1.97 14.356-1.7 9.45-2.37 18.729-2.02 27.839.01.244.11.476.28.644.18.168.41.261.66.257l8.73-.052a.917.917 0 0 0 .35-.076.87.87 0 0 0 .47-.512.849.849 0 0 0 .05-.353ZM872.312 641.18a1.661 1.661 0 0 0-1.67-1.648l-4.648.033a1.659 1.659 0 0 0-1.645 1.671l.174 24.925a1.659 1.659 0 0 0 1.67 1.646l4.648-.033a1.658 1.658 0 0 0 1.644-1.67l-.173-24.924Zm48.73-.778a.756.756 0 0 0-.214-.528.748.748 0 0 0-.524-.223l-5.692-.049a.73.73 0 0 0-.528.213.753.753 0 0 0-.223.525l-.232 26.754a.748.748 0 0 0 .453.692c.09.038.187.058.285.059l5.692.05a.757.757 0 0 0 .528-.214.73.73 0 0 0 .222-.524l.233-26.755Zm72.02.05a1.082 1.082 0 0 0-1.08-1.087l-7.023-.026a1.088 1.088 0 0 0-1.004.667 1.09 1.09 0 0 0-.084.415l-.091 26.336a1.077 1.077 0 0 0 .315.768 1.081 1.081 0 0 0 .765.32l7.023.023a1.085 1.085 0 0 0 1.088-1.08l.091-26.336Zm19.028.163c0-.147-.02-.293-.08-.43a1.262 1.262 0 0 0-.24-.366 1.274 1.274 0 0 0-.36-.246 1.18 1.18 0 0 0-.43-.088l-6.09-.031a1.12 1.12 0 0 0-.79.325c-.21.209-.33.494-.34.792l-.13 26.153c0 .148.03.294.08.431.06.136.14.26.24.365.11.105.23.189.36.246.14.057.29.087.43.088l6.09.031a1.1 1.1 0 0 0 .79-.324 1.103 1.103 0 0 0 .34-.792l.13-26.154Zm-120.434.057a1.019 1.019 0 0 0-1.019-1.019h-6.788a1.018 1.018 0 0 0-1.019 1.019v26.048a1.021 1.021 0 0 0 1.019 1.019h6.788a1.019 1.019 0 0 0 1.019-1.019v-26.048Zm46.403-.196a.61.61 0 0 0-.615-.612l-6.083.021a.609.609 0 0 0-.567.381.636.636 0 0 0-.046.236l.094 26.806a.617.617 0 0 0 .615.611l6.084-.02a.628.628 0 0 0 .434-.182.596.596 0 0 0 .132-.2.59.59 0 0 0 .046-.235l-.094-26.806Zm17.882.482a1.212 1.212 0 0 0-.357-.848 1.206 1.206 0 0 0-.852-.346l-5.588.039a1.21 1.21 0 0 0-1.193 1.211l.18 25.683a1.202 1.202 0 0 0 1.209 1.192l5.588-.039a1.203 1.203 0 0 0 1.105-.75c.059-.146.089-.303.088-.461l-.18-25.681Zm-321.656 18.59a1.264 1.264 0 0 0 .315.928 1.254 1.254 0 0 0 .886.418l5.262.196a1.257 1.257 0 0 0 1.213-.78 1.26 1.26 0 0 0 .092-.5l-.117-9.04a1.253 1.253 0 0 0-1.175-1.228l-4.465-.262a1.253 1.253 0 0 0-1.319 1.15l-.692 9.118Zm24.348-9.497a.353.353 0 0 0-.352-.353h-7.886a.354.354 0 0 0-.352.353v10.608a.353.353 0 0 0 .352.352h7.886a.353.353 0 0 0 .352-.352v-10.608Zm20.972.23a.858.858 0 0 0-.253-.598.862.862 0 0 0-.602-.245l-7.233.05a.862.862 0 0 0-.598.253.865.865 0 0 0-.182.277.887.887 0 0 0-.062.326l.068 9.771a.863.863 0 0 0 .253.599.842.842 0 0 0 .602.244l7.233-.05a.839.839 0 0 0 .598-.253.854.854 0 0 0 .244-.602l-.068-9.772Zm5.165 9.62a1.164 1.164 0 0 0 .343.871 1.185 1.185 0 0 0 .871.344l5.574-.222a1.177 1.177 0 0 0 1.123-1.176l.026-9.066a1.166 1.166 0 0 0-.358-.845 1.172 1.172 0 0 0-.856-.331l-5.235.144a1.179 1.179 0 0 0-1.136 1.124l-.352 9.157Zm56.777-9.233a.6.6 0 0 0-.047-.225.602.602 0 0 0-.322-.314.596.596 0 0 0-.225-.043l-8.382.088a.595.595 0 0 0-.413.177.577.577 0 0 0-.167.417l.13 12.594a.591.591 0 0 0 .594.58l8.381-.088a.596.596 0 0 0 .414-.177.585.585 0 0 0 .167-.417l-.13-12.592Zm-14.123.381a.798.798 0 0 0-.798-.797l-7.729.015a.8.8 0 0 0-.305.06.805.805 0 0 0-.491.738l.022 12.123a.798.798 0 0 0 .798.797l7.729-.015a.8.8 0 0 0 .305-.06.805.805 0 0 0 .491-.738l-.022-12.123Zm-567.33 6.34a1.754 1.754 0 0 0-1.739-1.76l-4.883-.026a1.75 1.75 0 0 0-1.758 1.742l-.132 25.238a1.749 1.749 0 0 0 1.739 1.76l4.882.026a1.746 1.746 0 0 0 1.622-1.072c.089-.212.136-.44.137-.669l.132-25.239Zm-72 16.542a.69.69 0 0 0 .679.693l10.797.222a.683.683 0 0 0 .275-.052.684.684 0 0 0 .43-.667l-.562-13.481a.693.693 0 0 0-.692-.667l-10.117-.039a.691.691 0 0 0-.692.693l-.118 13.298Zm29.85-13.083a.771.771 0 0 0-.775-.767l-10.862.058a.761.761 0 0 0-.543.228.785.785 0 0 0-.223.546l.068 12.933a.781.781 0 0 0 .228.544.78.78 0 0 0 .546.223l10.862-.057a.79.79 0 0 0 .295-.06.766.766 0 0 0 .471-.715l-.067-12.933Zm-49.3.511a1.031 1.031 0 0 0-1.043-1.02l-8.851.091a1.027 1.027 0 0 0-.946.648c-.05.126-.075.26-.074.396l.127 12.071a1.03 1.03 0 0 0 1.042 1.02l8.851-.092a1.024 1.024 0 0 0 .946-.648c.05-.125.075-.26.074-.395l-.127-12.071ZM712.234 677.9a.654.654 0 0 0-.007-.924l-.187-.183a.657.657 0 0 0-.923.008l-25.641 26.108a.655.655 0 0 0 .008.923l.187.183a.652.652 0 0 0 .923-.008l25.64-26.107Zm252.121 46.249c.112.109.769-.371 1.932-1.411 1.163-1.041 2.81-2.621 4.847-4.652a460.594 460.594 0 0 0 7.024-7.185c2.6-2.712 5.363-5.642 8.13-8.622a755.778 755.778 0 0 0 7.997-8.744 453.975 453.975 0 0 0 6.644-7.535c1.88-2.181 3.33-3.941 4.28-5.178.96-1.237 1.39-1.928 1.27-2.032-.11-.109-.77.37-1.93 1.411-1.16 1.04-2.81 2.621-4.848 4.652a455.669 455.669 0 0 0-7.024 7.184 750.431 750.431 0 0 0-8.13 8.622 755.007 755.007 0 0 0-7.997 8.744 459.588 459.588 0 0 0-6.646 7.535c-1.875 2.181-3.33 3.941-4.282 5.178-.952 1.238-1.383 1.928-1.267 2.033Zm-172.627-40.205a.718.718 0 0 0-.709-.726l-10.288-.127a.719.719 0 0 0-.726.711l-.179 14.682a.72.72 0 0 0 .709.726l10.288.127a.717.717 0 0 0 .726-.71l.179-14.683Zm25.513.17a.871.871 0 0 0-.254-.609.868.868 0 0 0-.61-.25l-9.4.034a.863.863 0 0 0-.859.864l.05 14.214c0 .113.023.225.067.329a.862.862 0 0 0 .797.53l9.4-.034a.845.845 0 0 0 .329-.067.84.84 0 0 0 .465-.468.863.863 0 0 0 .065-.33l-.05-14.213Zm20.075 1.181a1.872 1.872 0 0 0-.56-1.326 1.87 1.87 0 0 0-1.333-.542l-4.23.029a1.886 1.886 0 0 0-1.325.56 1.887 1.887 0 0 0-.541 1.334l.083 11.914a1.891 1.891 0 0 0 .56 1.326 1.874 1.874 0 0 0 1.333.542l4.23-.029a1.863 1.863 0 0 0 1.325-.56 1.874 1.874 0 0 0 .542-1.334l-.084-11.914Zm-133.5 22.118a1.62 1.62 0 0 0-1.843-1.619 1.623 1.623 0 0 0-.833.378l-8.29 7.146a1.616 1.616 0 0 0-.496.771l-3.447 11.691a1.62 1.62 0 0 0 1.554 2.077l11.606-.013a1.617 1.617 0 0 0 1.619-1.606l.13-18.825Zm22.534 5.839a1.683 1.683 0 0 0-.549-.796l-8.055-6.467a1.677 1.677 0 0 0-1.787-.207 1.686 1.686 0 0 0-.954 1.527l.078 18.916a1.69 1.69 0 0 0 .498 1.196 1.696 1.696 0 0 0 1.199.489l11.998-.026a1.682 1.682 0 0 0 1.65-1.416 1.698 1.698 0 0 0-.057-.779l-4.021-12.437Zm-86.891 14.413a.8.8 0 0 0-.238-.572.8.8 0 0 0-.572-.236l-8.878.015a.805.805 0 0 0-.748.501.791.791 0 0 0-.061.311l.043 24.246a.8.8 0 0 0 .238.572.8.8 0 0 0 .572.236l8.878-.015a.805.805 0 0 0 .748-.501.791.791 0 0 0 .061-.311l-.043-24.246Zm14.603.748a.865.865 0 0 0-.866-.86l-9.504.034a.864.864 0 0 0-.858.865l.081 23.331c0 .114.023.226.067.33a.852.852 0 0 0 .799.53l9.504-.034a.864.864 0 0 0 .858-.865l-.081-23.331Zm12.741.313a1.027 1.027 0 0 0-1.037-1.025l-7.494.052a1.027 1.027 0 0 0-.948.644c-.051.126-.077.26-.076.396l.157 22.652a1.027 1.027 0 0 0 .308.727 1.025 1.025 0 0 0 .731.297l7.494-.052a1.03 1.03 0 0 0 1.023-1.04l-.156-22.652-.002.001Zm453.106.333-4.8-.535a.887.887 0 0 0-.66.193.859.859 0 0 0-.33.604l-.03.169c-.28 2.529-.47 5.042-.57 7.395-.11 2.354-.11 4.502-.02 6.322.1 1.819.29 3.275.56 4.284.27 1.009.62 1.551 1.04 1.595l.34.039c.82.087 1.84-1.855 2.83-5.4.98-3.545 1.85-8.402 2.41-13.503l.03-.17a.878.878 0 0 0-.19-.661.914.914 0 0 0-.61-.332Zm-123.277.196a.41.41 0 0 0-.259-.378.433.433 0 0 0-.159-.027l-7.259.196a.406.406 0 0 0-.391.405l-.131 10.543a.406.406 0 0 0 .405.417l7.428.144a.395.395 0 0 0 .295-.114.394.394 0 0 0 .123-.291l-.052-10.895Zm22.347.52a.976.976 0 0 0-.05-.295.795.795 0 0 0-.42-.42.753.753 0 0 0-.29-.061l-5.07-.035a.715.715 0 0 0-.29.057.687.687 0 0 0-.25.165.675.675 0 0 0-.17.249.743.743 0 0 0-.06.294l-.13 18.316a.764.764 0 0 0 .76.774l5.07.035c.1.001.2-.018.29-.056.1-.038.18-.095.25-.166a.667.667 0 0 0 .17-.249.743.743 0 0 0 .06-.294l.13-18.315v.001Zm25.63.094a.79.79 0 0 0-.8-.797h-8.64a.79.79 0 0 0-.79.797v8.936a.79.79 0 0 0 .79.797h8.64a.796.796 0 0 0 .8-.797v-8.936Zm27.55-.185a.737.737 0 0 0-.05-.255.664.664 0 0 0-.15-.218.637.637 0 0 0-.47-.197l-7.39-.04a.675.675 0 0 0-.47.193.629.629 0 0 0-.14.216.748.748 0 0 0-.06.255l-.04 9.51c-.01.177.06.346.19.472.12.125.29.196.47.197l7.39.039a.661.661 0 0 0 .47-.193.615.615 0 0 0 .14-.215.575.575 0 0 0 .06-.255l.05-9.509Zm23.74 10.466c.09.004.18.035.25.089a.46.46 0 0 1 .15.212l.4 1.267c.02.065.03.134.02.202a.595.595 0 0 1-.08.186.446.446 0 0 1-.36.174l-7.82-.105a.45.45 0 0 0-.17.035.437.437 0 0 0-.23.249.516.516 0 0 0-.03.173l.29 5.343c0 .112.05.219.13.297.08.078.19.121.3.121l8.38.17a.411.411 0 0 0 .31-.121.325.325 0 0 0 .1-.142c.02-.053.04-.11.04-.168l.01-18.798a.438.438 0 0 0-.43-.431l-8.59-.066c-.12 0-.23.046-.31.127-.08.08-.12.19-.12.304l.04 10.281a.424.424 0 0 0 .41.431l7.31.17Zm-180.592-5.219a.809.809 0 0 0-1.145-.021l-32.152 30.961a.803.803 0 0 0-.193.879c.039.1.097.19.17.267l.037.038a.816.816 0 0 0 .568.247.808.808 0 0 0 .577-.227l32.152-30.96a.819.819 0 0 0 .249-.568.81.81 0 0 0-.227-.578l-.036-.038Zm38.36 31.551a.354.354 0 0 0 .067-.386.347.347 0 0 0-.08-.113l-31.558-30.072a.352.352 0 0 0-.498.013l-.595.625a.354.354 0 0 0-.067.386.347.347 0 0 0 .08.113l31.558 30.072a.354.354 0 0 0 .498-.013l.595-.625Zm-249.903-26.084a.601.601 0 0 0-.6-.6h-12.899a.604.604 0 0 0-.425.175.605.605 0 0 0-.176.425v25.84a.601.601 0 0 0 .601.601h12.899a.597.597 0 0 0 .6-.601v-25.84Zm25.932-.104a.645.645 0 0 0-.396-.591.644.644 0 0 0-.245-.048l-13.395.024a.638.638 0 0 0-.64.64l.046 25.839a.646.646 0 0 0 .188.453.645.645 0 0 0 .453.188l13.395-.024a.64.64 0 0 0 .639-.64l-.045-25.841Zm267.035 2.332a.623.623 0 0 0-.176-.446.624.624 0 0 0-.439-.192l-6.893-.121a.625.625 0 0 0-.636.616l-.098 5.539a.628.628 0 0 0 .616.637l6.894.121a.621.621 0 0 0 .637-.617l.095-5.537Zm48.018.124a.6.6 0 0 0-.04-.23.687.687 0 0 0-.13-.194.7.7 0 0 0-.2-.13.571.571 0 0 0-.23-.044l-9.06.047a.565.565 0 0 0-.42.178.542.542 0 0 0-.13.196.61.61 0 0 0-.05.23l.03 5.383c0 .159.07.311.18.423.11.112.26.174.42.174l9.06-.047a.61.61 0 0 0 .56-.375.6.6 0 0 0 .04-.23l-.03-5.382v.001Zm27.51.281a.88.88 0 0 0-.06-.321.781.781 0 0 0-.18-.275.75.75 0 0 0-.26-.186.88.88 0 0 0-.32-.07l-7.13-.137a.825.825 0 0 0-.32.057c-.1.04-.2.1-.28.176a.902.902 0 0 0-.18.268.71.71 0 0 0-.07.319l-.1 4.989c0 .11.02.219.06.321.04.103.1.196.18.275a.75.75 0 0 0 .26.186.88.88 0 0 0 .32.07l7.13.137a.825.825 0 0 0 .59-.233.773.773 0 0 0 .19-.268.71.71 0 0 0 .07-.319l.1-4.989Zm-53.16 21.43c0-.263-.1-.515-.29-.702a1 1 0 0 0-.7-.29h-5.28a1 1 0 0 0-.7.29 1.02 1.02 0 0 0-.29.702v13.769c0 .264.11.516.29.702.19.187.44.291.7.291h5.28c.26 0 .51-.104.7-.291a.975.975 0 0 0 .29-.702v-13.769Zm-22.394 1.137a1.623 1.623 0 0 0-.995-1.5 1.622 1.622 0 0 0-.619-.125l-4.856-.016a1.617 1.617 0 0 0-1.624 1.614l-.042 11.966a1.61 1.61 0 0 0 .994 1.501c.196.082.407.124.619.125l4.857.017a1.608 1.608 0 0 0 1.146-.471 1.62 1.62 0 0 0 .478-1.144l.042-11.967Zm47.804-.51a.982.982 0 0 0-.06-.34 1.035 1.035 0 0 0-.19-.289.85.85 0 0 0-.29-.194.88.88 0 0 0-.34-.07l-7.94-.042c-.11 0-.23.022-.34.066-.1.044-.2.109-.28.192a.864.864 0 0 0-.27.627l-.07 13.22a.896.896 0 0 0 .89.892l7.93.042c.12 0 .24-.022.34-.066a.83.83 0 0 0 .29-.192c.08-.082.15-.179.2-.287a.974.974 0 0 0 .06-.34l.07-13.219Zm27.65-.022c-.01-.13-.03-.259-.08-.379a1.24 1.24 0 0 0-.22-.319c-.1-.091-.21-.163-.33-.211a.986.986 0 0 0-.38-.07l-6.87.096a.975.975 0 0 0-.69.301.938.938 0 0 0-.28.705l.18 13.168a.987.987 0 0 0 .3.699.96.96 0 0 0 .71.281l6.86-.097a.983.983 0 0 0 .7-.3c.18-.189.28-.443.28-.706l-.18-13.168Zm25.47.309a1.479 1.479 0 0 0-.11-.509 1.417 1.417 0 0 0-.29-.43c-.13-.123-.28-.22-.44-.285a1.287 1.287 0 0 0-.51-.097l-6.66.057c-.17.002-.34.038-.5.107-.17.068-.31.168-.43.293a1.274 1.274 0 0 0-.38.946l.1 12.566c.01.175.04.348.11.509.07.161.17.307.29.429a1.332 1.332 0 0 0 .95.382l6.66-.058c.35-.004.68-.147.93-.399s.39-.591.38-.944l-.1-12.567Zm-440.563 27.369a1.656 1.656 0 0 0 1.514 1.685l6.763.549a1.66 1.66 0 0 0 1.788-1.659l-.091-24.795a1.657 1.657 0 0 0-1.645-1.659l-6.345-.091a1.654 1.654 0 0 0-1.684 1.633l-.3 24.337Zm46.882-17.048a.586.586 0 0 0-.045-.23.599.599 0 0 0-.553-.373l-13.316-.047a.585.585 0 0 0-.426.174.614.614 0 0 0-.177.425l-.055 16.068a.603.603 0 0 0 .598.602l13.316.048a.613.613 0 0 0 .426-.175.598.598 0 0 0 .177-.425l.055-16.067Zm25.787.483a.432.432 0 0 0-.119-.297.426.426 0 0 0-.295-.126l-13.786-.12a.418.418 0 0 0-.422.414l-.138 15.833a.415.415 0 0 0 .413.422l13.787.12a.417.417 0 0 0 .421-.414l.139-15.832Zm289.314 17.888a1.835 1.835 0 0 0-.15-.652 1.684 1.684 0 0 0-.94-.907 1.715 1.715 0 0 0-.66-.117l-3.81.081c-.45.01-.88.199-1.2.527a1.72 1.72 0 0 0-.47 1.22l.15 7.548c.01.225.06.446.15.652.09.206.22.392.38.548a1.696 1.696 0 0 0 1.22.476l3.81-.081c.45-.01.89-.199 1.2-.527.31-.327.48-.766.48-1.22l-.16-7.548Zm-22.326.872a2.3 2.3 0 0 0-2.298-2.3h-3.524a2.298 2.298 0 0 0-2.298 2.3v6.218a2.301 2.301 0 0 0 2.298 2.299h3.524a2.297 2.297 0 0 0 2.298-2.299v-6.218Zm75.906-.891c.01-.371-.14-.727-.4-.99a1.386 1.386 0 0 0-.98-.415l-6.43-.034a1.41 1.41 0 0 0-.99.405c-.13.129-.23.283-.3.452-.07.169-.11.351-.11.535l-.04 7.995c-.01.37.14.726.4.989.26.264.62.413.99.415l6.42.034c.18.001.36-.034.53-.104.17-.069.33-.171.46-.3.13-.13.23-.283.3-.453.08-.169.11-.351.11-.534l.04-7.995Zm24.7.708c0-.305-.06-.608-.18-.889a2.15 2.15 0 0 0-.51-.751c-.21-.213-.47-.38-.76-.491a2.228 2.228 0 0 0-.89-.155l-4.32.117c-.59.017-1.14.26-1.56.679-.41.419-.64.981-.65 1.568l-.05 6.258c0 .312.06.621.18.908.12.287.3.546.53.76a2.273 2.273 0 0 0 1.71.618l4.34-.275a2.25 2.25 0 0 0 1.51-.709c.4-.42.62-.974.62-1.551l.03-6.087Zm-52.73.17c0-.273-.06-.543-.16-.794a2.23 2.23 0 0 0-.46-.669 2.069 2.069 0 0 0-1.48-.592l-5.79.061c-.55.006-1.08.23-1.46.624-.39.393-.6.923-.6 1.474l.07 6.506c.01.273.06.542.17.793.11.251.26.478.46.669.19.191.42.341.67.443.26.102.53.153.8.15l5.8-.06a2.072 2.072 0 0 0 1.9-1.303c.1-.253.15-.524.15-.797l-.07-6.505Zm-288.758 8.713 16.607.078a.938.938 0 0 0 .94-.927v-.34a9.318 9.318 0 0 0-.666-3.513 9.163 9.163 0 0 0-1.936-2.987 8.99 8.99 0 0 0-2.911-2.005 8.874 8.874 0 0 0-3.443-.718h-.47a8.932 8.932 0 0 0-6.385 2.65 9.256 9.256 0 0 0-2.676 6.469v.339a.958.958 0 0 0 .271.674.93.93 0 0 0 .669.28Zm46.177.47 16.854-.444a.987.987 0 0 0 .901-.637c.046-.122.068-.251.065-.382v-.196a9.671 9.671 0 0 0-.795-3.594 9.464 9.464 0 0 0-2.074-3.01 9.171 9.171 0 0 0-3.035-1.968 8.99 8.99 0 0 0-3.535-.625l-.47.014a9.063 9.063 0 0 0-6.416 2.938 9.578 9.578 0 0 0-2.514 6.742v.196a1.011 1.011 0 0 0 .309.694.997.997 0 0 0 .71.272Zm30.222-.248 16.842-.052a.936.936 0 0 0 .872-.59.964.964 0 0 0 .068-.364v-.183a9.478 9.478 0 0 0-2.696-6.597 9.012 9.012 0 0 0-6.456-2.717h-.47a8.92 8.92 0 0 0-3.493.723 9.117 9.117 0 0 0-2.957 2.039 9.386 9.386 0 0 0-1.969 3.045 9.554 9.554 0 0 0-.68 3.586v.183a.936.936 0 0 0 .939.927Zm50.459.091 16.815.288a.886.886 0 0 0 .828-.536.901.901 0 0 0 .073-.339v-.209c.044-2.55-.867-5.012-2.535-6.844-1.667-1.833-3.953-2.886-6.356-2.928h-.47a8.611 8.611 0 0 0-3.481.671 9.02 9.02 0 0 0-2.977 2.033 9.68 9.68 0 0 0-2.019 3.086 10.145 10.145 0 0 0-.753 3.668v.209a.882.882 0 0 0 .251.632.878.878 0 0 0 .624.269Zm44.283 0 16.424.21a.983.983 0 0 0 .992-.967v-.157a9.86 9.86 0 0 0-.635-3.615 9.477 9.477 0 0 0-1.903-3.082 8.949 8.949 0 0 0-2.881-2.079 8.569 8.569 0 0 0-3.42-.76h-.469c-2.375-.03-4.665.933-6.366 2.677-1.702 1.744-2.676 4.127-2.708 6.624v.157a.973.973 0 0 0 .278.696.961.961 0 0 0 .688.296Zm-197.215-7.119a.615.615 0 0 0-.178-.436.61.61 0 0 0-.434-.181l-13.551-.047a.613.613 0 0 0-.615.612l-.099 28.138a.598.598 0 0 0 .046.236.596.596 0 0 0 .331.334.612.612 0 0 0 .235.047l13.551.047a.616.616 0 0 0 .615-.611l.099-28.139Zm43.701 9.804a.77.77 0 0 0-.219-.537.753.753 0 0 0-.535-.223l-16.841-.059a.754.754 0 0 0-.76.754l-.11 31.431a.76.76 0 0 0 .755.76l16.841.059a.758.758 0 0 0 .76-.754l.109-31.431Zm46.619.337a1.19 1.19 0 0 0-.35-.851 1.183 1.183 0 0 0-.39-.261 1.187 1.187 0 0 0-.459-.092l-16.737-.029a1.208 1.208 0 0 0-.85.35 1.211 1.211 0 0 0-.354.849l-.052 30.726a1.206 1.206 0 0 0 1.198 1.204l16.737.029a1.21 1.21 0 0 0 .85-.35c.112-.112.201-.244.261-.39.061-.145.093-.302.093-.46l.053-30.725Zm30.106-.353a.787.787 0 0 0-.058-.295.794.794 0 0 0-.167-.25.76.76 0 0 0-.544-.227l-17.677-.031a.783.783 0 0 0-.546.225.77.77 0 0 0-.226.546l-.054 31.483a.77.77 0 0 0 .769.771l17.676.031c.102 0 .202-.02.296-.058a.794.794 0 0 0 .25-.167.788.788 0 0 0 .226-.546l.055-31.483v.001Zm94.533.638a1.02 1.02 0 0 0-1.011-1.026l-16.893-.117a1.025 1.025 0 0 0-.723.293 1.014 1.014 0 0 0-.304.718l-.211 30.386a1.021 1.021 0 0 0 1.01 1.025l16.894.118a1.03 1.03 0 0 0 .723-.294 1.025 1.025 0 0 0 .303-.719l.212-30.384Zm-43.957-.008a.914.914 0 0 0-.912-.917l-17.128-.06a.915.915 0 0 0-.917.912l-.107 30.464a.914.914 0 0 0 .912.917l17.128.06a.914.914 0 0 0 .917-.912l.107-30.464Zm71.059 67.588a1.588 1.588 0 0 0-1.589-1.573l-10.261.055a1.583 1.583 0 0 0-1.455.983 1.59 1.59 0 0 0-.117.606l.104 19.882a1.579 1.579 0 0 0 1.588 1.572l10.261-.052a1.574 1.574 0 0 0 1.116-.469 1.58 1.58 0 0 0 .456-1.121l-.104-19.883h.001Zm44.211-.065a.985.985 0 0 0-.08-.415.904.904 0 0 0-.24-.351 1.07 1.07 0 0 0-.76-.315l-11.78.063c-.14.001-.28.03-.41.085a.993.993 0 0 0-.35.236c-.1.102-.18.221-.24.353-.05.132-.08.273-.08.416l.11 20.326c0 .143.03.284.08.415.06.131.14.25.24.351a1.083 1.083 0 0 0 .77.313l11.77-.062a1.086 1.086 0 0 0 .77-.321c.1-.102.18-.222.23-.353.05-.132.08-.273.08-.416l-.11-20.325Zm24.25-.174a.827.827 0 0 0-.25-.591.807.807 0 0 0-.59-.245h-9.21c-.22 0-.44.088-.59.245a.827.827 0 0 0-.25.591v20.64c0 .222.09.435.25.592.15.156.37.244.59.244h9.21a.81.81 0 0 0 .59-.244.83.83 0 0 0 .25-.592V874.6Zm13.64 7.329c1.41-1.542 2.95-4.795 3.19-6.754.08-.714-.23-1.063-.96-1.045l-1.07.026c-.29.005-.57.117-.78.314-.21.198-.35.467-.38.757l-.61 6.44c-.01.074.01.147.05.21.04.062.09.111.16.14a.35.35 0 0 0 .4-.088Zm-148.449-3.671c-9.961 3.396-11.828 13.116-10.666 22.391.035.235.17.352.405.352l10.966.118a.528.528 0 0 0 .369-.149.504.504 0 0 0 .153-.361l-.065-21.528a.88.88 0 0 0-.752-.863.866.866 0 0 0-.41.04Zm9.452.797c-2.933-2.038-4.391-1.272-4.373 2.299l.104 19.334c0 .2.096.3.287.3l11.711.013c.252 0 .374-.126.365-.378l-.182-10.595c-.061-3.701-1.61-6.606-4.648-8.713l-3.264-2.26Zm-56.764.509c-2.602-2.116-3.956-1.498-4.06 1.855l-.588 18.694a.919.919 0 0 0 .888.941l10.836.261a.7.7 0 0 0 .507-.207.688.688 0 0 0 .198-.512l-.3-9.863c-.105-3.448-1.489-6.261-4.152-8.439l-3.329-2.73Zm-16.306 21.268 5.353.509c2.176.209 3.255-.779 3.238-2.965l-.118-18.72a.779.779 0 0 0-.296-.604.773.773 0 0 0-.657-.141c-8.173 2.064-10.718 10.477-10.784 18.302-.017 2.203 1.071 3.41 3.264 3.619Zm129.883 8.41a.93.93 0 0 0-.273-.666.94.94 0 0 0-.663-.279l-11.489-.039a.951.951 0 0 0-.871.577.945.945 0 0 0-.073.36l-.097 27.851a.952.952 0 0 0 .273.667.954.954 0 0 0 .664.278l11.488.039a.942.942 0 0 0 .944-.937l.097-27.851Zm44.714.38c0-.192-.04-.383-.11-.561a1.379 1.379 0 0 0-.32-.476 1.367 1.367 0 0 0-.47-.318 1.474 1.474 0 0 0-.56-.113l-11.41-.04c-.19 0-.38.037-.56.11-.18.073-.34.18-.47.315-.14.136-.25.297-.32.474-.08.177-.12.367-.12.559l-.09 27.329a1.49 1.49 0 0 0 .42 1.036 1.498 1.498 0 0 0 1.04.433l11.41.039a1.444 1.444 0 0 0 1.03-.425c.14-.135.25-.296.32-.474.08-.177.11-.367.11-.559l.1-27.329Z"/>
  </g>
  <defs>
    <clipPath id="a">
      <path fill="#fff" d="M0 0h1175v1175H0z"/>
    </clipPath>
  </defs>
</svg>